<svg width="74" height="63" viewBox="0 0 74 63" fill="none" xmlns="http://www.w3.org/2000/svg">
<g clip-path="url(#clip0_1_194)">
<path d="M59.9488 31.7671C59.9488 31.7671 59.9224 31.7495 59.9136 31.7407C59.6317 31.5205 59.2352 31.5645 59.015 31.8464L56.4426 35.1148L55.2269 33.5819C54.9802 33.3264 54.575 33.3088 54.3195 33.5555C54.0905 33.7669 54.0552 34.1193 54.2226 34.3836L55.9405 36.5507C56.1607 36.8326 56.566 36.8767 56.8479 36.6564C56.8831 36.6212 56.9271 36.586 56.9536 36.5507L60.0457 32.6833C60.2748 32.4102 60.2307 32.005 59.9576 31.776L59.9488 31.7671Z" fill="white"/>
<path d="M49.3421 31.7671C49.3421 31.7671 49.3157 31.7495 49.3069 31.7407C49.025 31.5205 48.6198 31.5645 48.3995 31.8376L45.8271 35.106L44.6114 33.5731C44.3648 33.3176 43.9595 33.3 43.704 33.5467C43.475 33.7581 43.4398 34.1105 43.6071 34.3748L45.325 36.5419C45.5452 36.8238 45.9505 36.8679 46.2324 36.6476C46.2676 36.6124 46.3117 36.5771 46.3381 36.5419L49.439 32.6745C49.6681 32.4014 49.624 31.9962 49.351 31.7671H49.3421Z" fill="white"/>
<path d="M28.164 39.4667C28.164 39.4667 28.1464 39.449 28.1288 39.4402C27.8469 39.22 27.4416 39.264 27.2214 39.5371L24.649 42.8055L23.4157 41.2726C23.169 41.0171 22.7638 40.9995 22.5083 41.2462C22.2793 41.4576 22.244 41.81 22.4114 42.0743L24.1293 44.2414C24.3495 44.5233 24.7547 44.5674 25.0366 44.3471C25.0719 44.3119 25.1159 44.2767 25.1424 44.2414L28.2433 40.374C28.4724 40.101 28.4459 39.6957 28.1816 39.4667H28.164Z" fill="white"/>
<path d="M38.4535 39.4667C38.4535 39.4667 38.4359 39.449 38.4183 39.4402C38.1364 39.22 37.74 39.264 37.5197 39.546L34.9474 42.8143L33.7316 41.2814C33.5114 40.9995 33.1062 40.9555 32.8243 41.1757C32.5424 41.396 32.4983 41.8012 32.7185 42.0831L34.4276 44.2502C34.5509 44.4 34.7359 44.4969 34.9297 44.4969C35.1235 44.4969 35.3085 44.4088 35.4319 44.2502L38.5328 40.3829C38.7619 40.1098 38.7354 39.7045 38.4624 39.4755L38.4535 39.4667Z" fill="white"/>
<path d="M17.5486 39.4667C17.5486 39.4667 17.5222 39.449 17.5133 39.4402C17.2314 39.22 16.8262 39.264 16.606 39.5371L14.0336 42.8055L12.8179 41.2726C12.6241 40.9731 12.2188 40.8938 11.9281 41.0964C11.6286 41.2902 11.5493 41.6955 11.7519 41.9862C11.7695 42.0126 11.796 42.0479 11.8224 42.0743L13.5403 44.2414C13.7605 44.5233 14.1657 44.5674 14.4476 44.3471C14.4829 44.3119 14.5269 44.2767 14.5533 44.2414L17.6543 40.374C17.8833 40.101 17.8393 39.6957 17.5662 39.4667H17.5486Z" fill="white"/>
<path d="M70.5379 42.4443V4.06119C70.5379 3.70881 70.2471 3.4181 69.8948 3.4181H61.1557V0.643095C61.1557 0.290714 60.865 0 60.5126 0C60.1602 0 59.8695 0.290714 59.8695 0.643095V3.4181H48.5581V0.643095C48.5581 0.290714 48.2674 0 47.915 0C47.5626 0 47.2719 0.290714 47.2719 0.643095V3.4181H35.9605V0.643095C35.9605 0.290714 35.6698 0 35.3174 0C34.965 0 34.6743 0.290714 34.6743 0.643095V3.4181H23.3629V0.643095C23.3629 0.290714 23.0721 0 22.7198 0C22.3674 0 22.0767 0.290714 22.0767 0.643095V3.4181H10.7564V0.643095C10.7564 0.290714 10.4657 0 10.1133 0C9.76095 0 9.47024 0.290714 9.47024 0.643095V3.4181H0.643095C0.290714 3.4181 0 3.70881 0 4.06119V55.3943C0 55.7467 0.290714 56.0374 0.643095 56.0374H56.9712C57.0593 56.0374 57.1386 56.0198 57.2179 55.9933C57.2971 55.9581 57.3676 55.914 57.4293 55.8524L70.4145 42.8671C70.4674 42.8143 70.5114 42.7526 70.5467 42.6821V42.6205C70.5555 42.5588 70.5555 42.506 70.5467 42.4443H70.5379ZM60.5126 8.40429C60.9443 8.40429 61.2879 8.75667 61.2879 9.17952C61.2879 9.60238 60.9355 9.95476 60.5126 9.95476C60.0898 9.95476 59.7374 9.60238 59.7374 9.17952C59.7374 8.75667 60.0898 8.40429 60.5126 8.40429ZM47.915 8.40429C48.3467 8.40429 48.6902 8.75667 48.6902 9.17952C48.6902 9.60238 48.3379 9.95476 47.915 9.95476C47.4921 9.95476 47.1398 9.60238 47.1398 9.17952C47.1398 8.75667 47.4921 8.40429 47.915 8.40429ZM35.3174 8.40429C35.7491 8.40429 36.0926 8.75667 36.0926 9.17952C36.0926 9.61119 35.7402 9.95476 35.3174 9.95476C34.8857 9.95476 34.5421 9.60238 34.5421 9.17952C34.5421 8.74786 34.8945 8.40429 35.3174 8.40429ZM22.7198 8.40429C23.1514 8.40429 23.495 8.75667 23.495 9.17952C23.495 9.61119 23.1426 9.95476 22.7198 9.95476C22.2881 9.95476 21.9445 9.60238 21.9445 9.17952C21.9445 8.74786 22.2969 8.40429 22.7198 8.40429ZM10.1221 8.40429C10.5538 8.40429 10.8974 8.75667 10.8974 9.17952C10.8974 9.61119 10.545 9.95476 10.1221 9.95476C9.69048 9.95476 9.3469 9.60238 9.3469 9.17952C9.3469 8.74786 9.69929 8.40429 10.1221 8.40429ZM56.98 41.7924C56.6276 41.7924 56.3369 42.0831 56.3369 42.4355V45.1576H52.3726V38.7179H61.8252V41.8012H56.98V41.7924ZM61.8252 30.9038V37.3436H52.3726V30.9038H61.8252ZM52.3726 29.6176V23.1779H61.8252V29.6176H52.3726ZM57.6231 53.8438V43.0786H68.4148L57.6231 53.8438ZM69.3486 41.7924H63.1114V22.526C63.1114 22.1736 62.8207 21.8829 62.4683 21.8829H8.76548C8.4131 21.8829 8.12238 22.1736 8.12238 22.526V45.7655C8.12238 46.1179 8.4131 46.4086 8.76548 46.4086H56.3281V54.7424H1.28619V15.1612H69.3398V41.7836L69.3486 41.7924ZM41.6338 37.3436V30.9038H51.0864V37.3436H41.6338ZM51.0864 38.6826V45.1224H41.6338V38.6826H51.0864ZM41.6338 29.6088V23.169H51.0864V29.6088H41.6338ZM30.895 37.3348V30.895H40.3476V37.3348H30.895ZM40.3476 38.6738V45.1136H30.895V38.6738H40.3476ZM30.895 29.6V23.1602H40.3476V29.6H30.895ZM20.1562 37.326V30.8862H29.6088V37.326H20.1562ZM29.6088 38.665V45.1048H20.1562V38.665H29.6088ZM20.1562 29.5912V23.1514H29.6088V29.5912H20.1562ZM9.41738 37.3171V30.8774H18.87V37.3171H9.40857H9.41738ZM18.87 38.6562V45.096H9.40857V38.6562H18.8612H18.87ZM9.41738 29.5824V23.1426H18.87V29.5824H9.40857H9.41738ZM69.3398 13.875H1.28619V4.7131H9.47024V7.22381C8.38667 7.57619 7.79643 8.74786 8.14881 9.83143C8.50119 10.915 9.67286 11.5052 10.7564 11.1529C11.84 10.8005 12.4302 9.62881 12.0779 8.54524C11.8752 7.91976 11.3819 7.42643 10.7564 7.22381V4.7131H22.0679V7.22381C20.9843 7.57619 20.394 8.74786 20.7464 9.83143C21.0988 10.915 22.2705 11.5052 23.354 11.1529C24.4376 10.8005 25.0279 9.62881 24.6755 8.54524C24.4729 7.91976 23.9795 7.42643 23.354 7.22381V4.7131H34.6655V7.22381C33.5819 7.57619 32.9917 8.74786 33.344 9.83143C33.6964 10.915 34.8681 11.5052 35.9517 11.1529C37.0352 10.8005 37.6255 9.62881 37.2731 8.54524C37.0705 7.91976 36.5771 7.42643 35.9517 7.22381V4.7131H47.2631V7.22381C46.1795 7.57619 45.5893 8.74786 45.9417 9.83143C46.2941 10.915 47.4657 11.5052 48.5493 11.1529C49.6329 10.8005 50.2231 9.62881 49.8707 8.54524C49.6681 7.91976 49.1748 7.42643 48.5493 7.22381V4.7131H59.8607V7.22381C58.7771 7.57619 58.1869 8.74786 58.5393 9.83143C58.8917 10.915 60.0633 11.5052 61.1469 11.1529C62.2305 10.8005 62.8207 9.62881 62.4683 8.54524C62.2657 7.91976 61.7724 7.42643 61.1469 7.22381V4.7131H69.331V13.875H69.3398Z" fill="white"/>
<path d="M73.3569 7.10929C73.0045 7.10929 72.7138 7.4 72.7138 7.75238V58.1781H5.57644C5.22406 58.1781 4.93335 58.4688 4.93335 58.8212C4.93335 59.1736 5.22406 59.4643 5.57644 59.4643H73.3569C73.7093 59.4643 74 59.1736 74 58.8212V7.75238C74 7.4 73.7093 7.10929 73.3569 7.10929Z" fill="white"/>
<path d="M73.3569 61.6667H5.57644C5.22406 61.6667 4.93335 61.9574 4.93335 62.3098C4.93335 62.6621 5.22406 62.9529 5.57644 62.9529H73.3569C73.7093 62.9529 74 62.6621 74 62.3098C74 61.9574 73.7093 61.6667 73.3569 61.6667Z" fill="white"/>
</g>
<defs>
<clipPath id="clip0_1_194">
<rect width="74" height="62.9617" fill="white"/>
</clipPath>
</defs>
</svg>
