<svg width="74" height="75" viewBox="0 0 74 75" fill="none" xmlns="http://www.w3.org/2000/svg">
<g clip-path="url(#clip0_1_131)">
<path d="M27.1333 0H2.73976C2.39619 0 2.11429 0.281905 2.11429 0.625476V2.96881H0.625476C0.281905 2.96881 0 3.25071 0 3.59429V73.4626C0 73.8062 0.281905 74.0881 0.625476 74.0881H29.2476C29.2476 74.0881 29.3357 74.0881 29.3798 74.0881C29.4238 74.0881 29.4679 74.0881 29.5207 74.0881H73.3833C73.7269 74.0881 74.0088 73.8062 74.0088 73.4626V11.7255C74.0088 11.3819 73.7269 11.1 73.3833 11.1H29.8731V3.59429C29.8731 3.25071 29.5912 2.96881 29.2476 2.96881H27.7588V0.625476C27.7588 0.281905 27.4769 0 27.1333 0ZM29.8731 69.5512H65.6662C66.0098 69.5512 66.2917 69.2693 66.2917 68.9257C66.2917 68.5821 66.0098 68.3002 65.6662 68.3002H29.8731V12.351H72.749V68.3091H69.1812C68.8376 68.3091 68.5557 68.591 68.5557 68.9345C68.5557 69.2781 68.8376 69.56 69.1812 69.56H72.749V72.846H29.8731V69.56V69.5512ZM3.36524 1.25095H26.499V2.96881H3.36524V1.25095ZM28.6221 4.21976V72.8371H25.8119V8.49238C25.8119 8.14881 25.53 7.86691 25.1864 7.86691C24.8429 7.86691 24.561 8.14881 24.561 8.49238V72.8371H21.7155V8.49238C21.7155 8.14881 21.4336 7.86691 21.09 7.86691C20.7464 7.86691 20.4645 8.14881 20.4645 8.49238V72.8371H17.619V8.49238C17.619 8.14881 17.3371 7.86691 16.9936 7.86691C16.65 7.86691 16.3681 8.14881 16.3681 8.49238V72.8371H13.5138V8.49238C13.5138 8.14881 13.2319 7.86691 12.8883 7.86691C12.5448 7.86691 12.2629 8.14881 12.2629 8.49238V72.8371H9.40857V8.49238C9.40857 8.14881 9.12667 7.86691 8.7831 7.86691C8.43952 7.86691 8.15762 8.14881 8.15762 8.49238V72.8371H5.31214V8.49238C5.31214 8.14881 5.03024 7.86691 4.68667 7.86691C4.3431 7.86691 4.06119 8.14881 4.06119 8.49238V72.8371H1.25095V4.21976H28.6221Z" fill="white"/>
<path d="M37.229 20.0593H33.714C33.3705 20.0593 33.0886 20.3412 33.0886 20.6848V24.2086C33.0886 24.5522 33.3705 24.8341 33.714 24.8341H37.229C37.5726 24.8341 37.8545 24.5522 37.8545 24.2086V20.6848C37.8545 20.3412 37.5726 20.0593 37.229 20.0593ZM36.6036 23.5831H34.3395V21.3102H36.6036V23.5831Z" fill="white"/>
<path d="M45.2193 20.0593H41.6955C41.3519 20.0593 41.07 20.3412 41.07 20.6848V24.2086C41.07 24.5522 41.3519 24.8341 41.6955 24.8341H45.2193C45.5629 24.8341 45.8448 24.5522 45.8448 24.2086V20.6848C45.8448 20.3412 45.5629 20.0593 45.2193 20.0593ZM44.5938 23.5831H42.321V21.3102H44.5938V23.5831Z" fill="white"/>
<path d="M53.2007 20.0593H49.6769C49.3334 20.0593 49.0515 20.3412 49.0515 20.6848V24.2086C49.0515 24.5522 49.3334 24.8341 49.6769 24.8341H53.2007C53.5443 24.8341 53.8262 24.5522 53.8262 24.2086V20.6848C53.8262 20.3412 53.5443 20.0593 53.2007 20.0593ZM52.5753 23.5831H50.3024V21.3102H52.5753V23.5831Z" fill="white"/>
<path d="M61.1998 20.0593H57.676C57.3324 20.0593 57.0505 20.3412 57.0505 20.6848V24.2086C57.0505 24.5522 57.3324 24.8341 57.676 24.8341H61.1998C61.5433 24.8341 61.8252 24.5522 61.8252 24.2086V20.6848C61.8252 20.3412 61.5433 20.0593 61.1998 20.0593ZM60.5743 23.5831H58.3014V21.3102H60.5743V23.5831Z" fill="white"/>
<path d="M65.6662 24.8252H69.1812C69.5248 24.8252 69.8067 24.5433 69.8067 24.1998V20.676C69.8067 20.3324 69.5248 20.0505 69.1812 20.0505H65.6662C65.3226 20.0505 65.0407 20.3324 65.0407 20.676V24.1998C65.0407 24.5433 65.3226 24.8252 65.6662 24.8252ZM66.2917 21.3014H68.5557V23.5743H66.2917V21.3014Z" fill="white"/>
<path d="M37.2291 14.6678C36.8855 14.6678 36.6036 14.9498 36.6036 15.2933V16.6148C36.6036 16.9583 36.8855 17.2402 37.2291 17.2402C37.5726 17.2402 37.8545 16.9583 37.8545 16.6148V15.2933C37.8545 14.9498 37.5726 14.6678 37.2291 14.6678Z" fill="white"/>
<path d="M33.714 17.2402C34.0576 17.2402 34.3395 16.9583 34.3395 16.6148V15.2933C34.3395 14.9498 34.0576 14.6678 33.714 14.6678C33.3705 14.6678 33.0886 14.9498 33.0886 15.2933V16.6148C33.0886 16.9583 33.3705 17.2402 33.714 17.2402Z" fill="white"/>
<path d="M45.2193 14.6678C44.8757 14.6678 44.5938 14.9498 44.5938 15.2933V16.6148C44.5938 16.9583 44.8757 17.2402 45.2193 17.2402C45.5629 17.2402 45.8448 16.9583 45.8448 16.6148V15.2933C45.8448 14.9498 45.5629 14.6678 45.2193 14.6678Z" fill="white"/>
<path d="M41.6955 17.2402C42.0391 17.2402 42.321 16.9583 42.321 16.6148V15.2933C42.321 14.9498 42.0391 14.6678 41.6955 14.6678C41.3519 14.6678 41.07 14.9498 41.07 15.2933V16.6148C41.07 16.9583 41.3519 17.2402 41.6955 17.2402Z" fill="white"/>
<path d="M53.2007 14.6678C52.8572 14.6678 52.5753 14.9498 52.5753 15.2933V16.6148C52.5753 16.9583 52.8572 17.2402 53.2007 17.2402C53.5443 17.2402 53.8262 16.9583 53.8262 16.6148V15.2933C53.8262 14.9498 53.5443 14.6678 53.2007 14.6678Z" fill="white"/>
<path d="M49.6857 17.2402C50.0293 17.2402 50.3112 16.9583 50.3112 16.6148V15.2933C50.3112 14.9498 50.0293 14.6678 49.6857 14.6678C49.3421 14.6678 49.0602 14.9498 49.0602 15.2933V16.6148C49.0602 16.9583 49.3421 17.2402 49.6857 17.2402Z" fill="white"/>
<path d="M61.1998 14.6678C60.8562 14.6678 60.5743 14.9498 60.5743 15.2933V16.6148C60.5743 16.9583 60.8562 17.2402 61.1998 17.2402C61.5433 17.2402 61.8252 16.9583 61.8252 16.6148V15.2933C61.8252 14.9498 61.5433 14.6678 61.1998 14.6678Z" fill="white"/>
<path d="M57.676 17.2402C58.0195 17.2402 58.3014 16.9583 58.3014 16.6148V15.2933C58.3014 14.9498 58.0195 14.6678 57.676 14.6678C57.3324 14.6678 57.0505 14.9498 57.0505 15.2933V16.6148C57.0505 16.9583 57.3324 17.2402 57.676 17.2402Z" fill="white"/>
<path d="M69.1812 17.2402C69.5248 17.2402 69.8067 16.9583 69.8067 16.6148V15.2933C69.8067 14.9498 69.5248 14.6678 69.1812 14.6678C68.8376 14.6678 68.5557 14.9498 68.5557 15.2933V16.6148C68.5557 16.9583 68.8376 17.2402 69.1812 17.2402Z" fill="white"/>
<path d="M65.6662 17.2402C66.0098 17.2402 66.2917 16.9583 66.2917 16.6148V15.2933C66.2917 14.9498 66.0098 14.6678 65.6662 14.6678C65.3226 14.6678 65.0407 14.9498 65.0407 15.2933V16.6148C65.0407 16.9583 65.3226 17.2402 65.6662 17.2402Z" fill="white"/>
<path d="M37.229 27.8381H33.714C33.3705 27.8381 33.0886 28.12 33.0886 28.4636V31.9874C33.0886 32.331 33.3705 32.6129 33.714 32.6129H37.229C37.5726 32.6129 37.8545 32.331 37.8545 31.9874V28.4636C37.8545 28.12 37.5726 27.8381 37.229 27.8381ZM36.6036 31.3619H34.3395V29.0891H36.6036V31.3619Z" fill="white"/>
<path d="M45.2193 27.8381H41.6955C41.3519 27.8381 41.07 28.12 41.07 28.4636V31.9874C41.07 32.331 41.3519 32.6129 41.6955 32.6129H45.2193C45.5629 32.6129 45.8448 32.331 45.8448 31.9874V28.4636C45.8448 28.12 45.5629 27.8381 45.2193 27.8381ZM44.5938 31.3619H42.321V29.0891H44.5938V31.3619Z" fill="white"/>
<path d="M53.2007 27.8381H49.6769C49.3334 27.8381 49.0515 28.12 49.0515 28.4636V31.9874C49.0515 32.331 49.3334 32.6129 49.6769 32.6129H53.2007C53.5443 32.6129 53.8262 32.331 53.8262 31.9874V28.4636C53.8262 28.12 53.5443 27.8381 53.2007 27.8381ZM52.5753 31.3619H50.3024V29.0891H52.5753V31.3619Z" fill="white"/>
<path d="M61.1998 27.8381H57.676C57.3324 27.8381 57.0505 28.12 57.0505 28.4636V31.9874C57.0505 32.331 57.3324 32.6129 57.676 32.6129H61.1998C61.5433 32.6129 61.8252 32.331 61.8252 31.9874V28.4636C61.8252 28.12 61.5433 27.8381 61.1998 27.8381ZM60.5743 31.3619H58.3014V29.0891H60.5743V31.3619Z" fill="white"/>
<path d="M65.6662 32.604H69.1812C69.5248 32.604 69.8067 32.3221 69.8067 31.9786V28.4548C69.8067 28.1112 69.5248 27.8293 69.1812 27.8293H65.6662C65.3226 27.8293 65.0407 28.1112 65.0407 28.4548V31.9786C65.0407 32.3221 65.3226 32.604 65.6662 32.604ZM66.2917 29.0802H68.5557V31.3531H66.2917V29.0802Z" fill="white"/>
<path d="M37.229 35.6169H33.714C33.3705 35.6169 33.0886 35.8988 33.0886 36.2424V39.7574C33.0886 40.101 33.3705 40.3829 33.714 40.3829H37.229C37.5726 40.3829 37.8545 40.101 37.8545 39.7574V36.2424C37.8545 35.8988 37.5726 35.6169 37.229 35.6169ZM36.6036 39.1319H34.3395V36.8679H36.6036V39.1319Z" fill="white"/>
<path d="M45.2193 35.6169H41.6955C41.3519 35.6169 41.07 35.8988 41.07 36.2424V39.7574C41.07 40.101 41.3519 40.3829 41.6955 40.3829H45.2193C45.5629 40.3829 45.8448 40.101 45.8448 39.7574V36.2424C45.8448 35.8988 45.5629 35.6169 45.2193 35.6169ZM44.5938 39.1319H42.321V36.8679H44.5938V39.1319Z" fill="white"/>
<path d="M53.2007 35.6169H49.6769C49.3334 35.6169 49.0515 35.8988 49.0515 36.2424V39.7574C49.0515 40.101 49.3334 40.3829 49.6769 40.3829H53.2007C53.5443 40.3829 53.8262 40.101 53.8262 39.7574V36.2424C53.8262 35.8988 53.5443 35.6169 53.2007 35.6169ZM52.5753 39.1319H50.3024V36.8679H52.5753V39.1319Z" fill="white"/>
<path d="M61.1998 35.6169H57.676C57.3324 35.6169 57.0505 35.8988 57.0505 36.2424V39.7574C57.0505 40.101 57.3324 40.3829 57.676 40.3829H61.1998C61.5433 40.3829 61.8252 40.101 61.8252 39.7574V36.2424C61.8252 35.8988 61.5433 35.6169 61.1998 35.6169ZM60.5743 39.1319H58.3014V36.8679H60.5743V39.1319Z" fill="white"/>
<path d="M65.6662 40.3829H69.1812C69.5248 40.3829 69.8067 40.101 69.8067 39.7574V36.2424C69.8067 35.8988 69.5248 35.6169 69.1812 35.6169H65.6662C65.3226 35.6169 65.0407 35.8988 65.0407 36.2424V39.7574C65.0407 40.101 65.3226 40.3829 65.6662 40.3829ZM66.2917 36.8679H68.5557V39.1319H66.2917V36.8679Z" fill="white"/>
<path d="M37.229 43.3957H33.714C33.3705 43.3957 33.0886 43.6776 33.0886 44.0212V47.5362C33.0886 47.8798 33.3705 48.1617 33.714 48.1617H37.229C37.5726 48.1617 37.8545 47.8798 37.8545 47.5362V44.0212C37.8545 43.6776 37.5726 43.3957 37.229 43.3957ZM36.6036 46.9107H34.3395V44.6467H36.6036V46.9107Z" fill="white"/>
<path d="M45.2193 43.3957H41.6955C41.3519 43.3957 41.07 43.6776 41.07 44.0212V47.5362C41.07 47.8798 41.3519 48.1617 41.6955 48.1617H45.2193C45.5629 48.1617 45.8448 47.8798 45.8448 47.5362V44.0212C45.8448 43.6776 45.5629 43.3957 45.2193 43.3957ZM44.5938 46.9107H42.321V44.6467H44.5938V46.9107Z" fill="white"/>
<path d="M53.2007 43.3957H49.6769C49.3334 43.3957 49.0515 43.6776 49.0515 44.0212V47.5362C49.0515 47.8798 49.3334 48.1617 49.6769 48.1617H53.2007C53.5443 48.1617 53.8262 47.8798 53.8262 47.5362V44.0212C53.8262 43.6776 53.5443 43.3957 53.2007 43.3957ZM52.5753 46.9107H50.3024V44.6467H52.5753V46.9107Z" fill="white"/>
<path d="M61.1998 43.3957H57.676C57.3324 43.3957 57.0505 43.6776 57.0505 44.0212V47.5362C57.0505 47.8798 57.3324 48.1617 57.676 48.1617H61.1998C61.5433 48.1617 61.8252 47.8798 61.8252 47.5362V44.0212C61.8252 43.6776 61.5433 43.3957 61.1998 43.3957ZM60.5743 46.9107H58.3014V44.6467H60.5743V46.9107Z" fill="white"/>
<path d="M65.6662 48.1617H69.1812C69.5248 48.1617 69.8067 47.8798 69.8067 47.5362V44.0212C69.8067 43.6776 69.5248 43.3957 69.1812 43.3957H65.6662C65.3226 43.3957 65.0407 43.6776 65.0407 44.0212V47.5362C65.0407 47.8798 65.3226 48.1617 65.6662 48.1617ZM66.2917 44.6467H68.5557V46.9107H66.2917V44.6467Z" fill="white"/>
<path d="M37.229 51.1745H33.714C33.3705 51.1745 33.0886 51.4564 33.0886 51.8V55.315C33.0886 55.6586 33.3705 55.9405 33.714 55.9405H37.229C37.5726 55.9405 37.8545 55.6586 37.8545 55.315V51.8C37.8545 51.4564 37.5726 51.1745 37.229 51.1745ZM36.6036 54.6895H34.3395V52.4255H36.6036V54.6895Z" fill="white"/>
<path d="M45.2193 51.1745H41.6955C41.3519 51.1745 41.07 51.4564 41.07 51.8V55.315C41.07 55.6586 41.3519 55.9405 41.6955 55.9405H45.2193C45.5629 55.9405 45.8448 55.6586 45.8448 55.315V51.8C45.8448 51.4564 45.5629 51.1745 45.2193 51.1745ZM44.5938 54.6895H42.321V52.4255H44.5938V54.6895Z" fill="white"/>
<path d="M53.2007 51.1745H49.6769C49.3334 51.1745 49.0515 51.4564 49.0515 51.8V55.315C49.0515 55.6586 49.3334 55.9405 49.6769 55.9405H53.2007C53.5443 55.9405 53.8262 55.6586 53.8262 55.315V51.8C53.8262 51.4564 53.5443 51.1745 53.2007 51.1745ZM52.5753 54.6895H50.3024V52.4255H52.5753V54.6895Z" fill="white"/>
<path d="M61.1998 51.1745H57.676C57.3324 51.1745 57.0505 51.4564 57.0505 51.8V55.315C57.0505 55.6586 57.3324 55.9405 57.676 55.9405H61.1998C61.5433 55.9405 61.8252 55.6586 61.8252 55.315V51.8C61.8252 51.4564 61.5433 51.1745 61.1998 51.1745ZM60.5743 54.6895H58.3014V52.4255H60.5743V54.6895Z" fill="white"/>
<path d="M65.6662 55.9405H69.1812C69.5248 55.9405 69.8067 55.6586 69.8067 55.315V51.8C69.8067 51.4564 69.5248 51.1745 69.1812 51.1745H65.6662C65.3226 51.1745 65.0407 51.4564 65.0407 51.8V55.315C65.0407 55.6586 65.3226 55.9405 65.6662 55.9405ZM66.2917 52.4255H68.5557V54.6895H66.2917V52.4255Z" fill="white"/>
<path d="M37.229 58.9269H33.714C33.3705 58.9269 33.0886 59.2088 33.0886 59.5524V63.0762C33.0886 63.4198 33.3705 63.7017 33.714 63.7017H37.229C37.5726 63.7017 37.8545 63.4198 37.8545 63.0762V59.5524C37.8545 59.2088 37.5726 58.9269 37.229 58.9269ZM36.6036 62.4507H34.3395V60.1779H36.6036V62.4507Z" fill="white"/>
<path d="M45.2193 58.9269H41.6955C41.3519 58.9269 41.07 59.2088 41.07 59.5524V63.0762C41.07 63.4198 41.3519 63.7017 41.6955 63.7017H45.2193C45.5629 63.7017 45.8448 63.4198 45.8448 63.0762V59.5524C45.8448 59.2088 45.5629 58.9269 45.2193 58.9269ZM44.5938 62.4507H42.321V60.1779H44.5938V62.4507Z" fill="white"/>
<path d="M53.2007 58.9269H49.6769C49.3334 58.9269 49.0515 59.2088 49.0515 59.5524V63.0762C49.0515 63.4198 49.3334 63.7017 49.6769 63.7017H53.2007C53.5443 63.7017 53.8262 63.4198 53.8262 63.0762V59.5524C53.8262 59.2088 53.5443 58.9269 53.2007 58.9269ZM52.5753 62.4507H50.3024V60.1779H52.5753V62.4507Z" fill="white"/>
<path d="M61.1998 58.9269H57.676C57.3324 58.9269 57.0505 59.2088 57.0505 59.5524V63.0762C57.0505 63.4198 57.3324 63.7017 57.676 63.7017H61.1998C61.5433 63.7017 61.8252 63.4198 61.8252 63.0762V59.5524C61.8252 59.2088 61.5433 58.9269 61.1998 58.9269ZM60.5743 62.4507H58.3014V60.1779H60.5743V62.4507Z" fill="white"/>
<path d="M69.8067 63.0938V59.5524C69.8067 59.2088 69.5248 58.9269 69.1812 58.9269H65.6662C65.3226 58.9269 65.0407 59.2088 65.0407 59.5524V63.0762C65.0407 63.4198 65.3226 63.7017 65.6662 63.7017H69.1812C69.5159 63.7017 69.789 63.4374 69.8067 63.1026V63.0938ZM68.5557 62.4683H66.2917V60.1779H68.5557V62.4683Z" fill="white"/>
</g>
<defs>
<clipPath id="clip0_1_131">
<rect width="74" height="74.0881" fill="white"/>
</clipPath>
</defs>
</svg>
