<svg width="74" height="72" viewBox="0 0 74 72" fill="none" xmlns="http://www.w3.org/2000/svg">
<g clip-path="url(#clip0_1_173)">
<path d="M68.2914 21.786H60.821C60.4774 21.786 60.2043 22.059 60.2043 22.4026C60.2043 22.7462 60.4774 23.0193 60.821 23.0193H68.2914C68.635 23.0193 68.9081 22.7462 68.9081 22.4026C68.9081 22.059 68.635 21.786 68.2914 21.786Z" fill="white"/>
<path d="M68.2914 26.684H60.821C60.4774 26.684 60.2043 26.9571 60.2043 27.3007C60.2043 27.6443 60.4774 27.9174 60.821 27.9174H68.2914C68.635 27.9174 68.9081 27.6443 68.9081 27.3007C68.9081 26.9571 68.635 26.684 68.2914 26.684Z" fill="white"/>
<path d="M68.2914 31.5821H60.821C60.4774 31.5821 60.2043 31.8552 60.2043 32.1988C60.2043 32.5424 60.4774 32.8155 60.821 32.8155H68.2914C68.635 32.8155 68.9081 32.5424 68.9081 32.1988C68.9081 31.8552 68.635 31.5821 68.2914 31.5821Z" fill="white"/>
<path d="M52.0907 53.465C51.7471 53.465 51.4741 53.7381 51.4741 54.0817V60.6007C51.4741 60.9443 51.7471 61.2174 52.0907 61.2174C52.4343 61.2174 52.7074 60.9443 52.7074 60.6007V54.0817C52.7074 53.7381 52.4343 53.465 52.0907 53.465Z" fill="white"/>
<path d="M56.1519 52.0026C55.8083 52.0026 55.5352 52.2757 55.5352 52.6193V60.5919C55.5352 60.9355 55.8083 61.2086 56.1519 61.2086C56.4955 61.2086 56.7686 60.9355 56.7686 60.5919V52.6193C56.7686 52.2757 56.4955 52.0026 56.1519 52.0026Z" fill="white"/>
<path d="M60.1955 53.465C59.8519 53.465 59.5788 53.7381 59.5788 54.0817V60.6007C59.5788 60.9443 59.8519 61.2174 60.1955 61.2174C60.5391 61.2174 60.8121 60.9443 60.8121 60.6007V54.0817C60.8121 53.7381 60.5391 53.465 60.1955 53.465Z" fill="white"/>
<path d="M68.2914 46.6817C67.9479 46.6817 67.6748 46.9548 67.6748 47.2983V60.5919C67.6748 60.9355 67.9479 61.2086 68.2914 61.2086C68.635 61.2086 68.9081 60.9355 68.9081 60.5919V47.2983C68.9081 46.9548 68.635 46.6817 68.2914 46.6817Z" fill="white"/>
<path d="M64.2479 49.3774C63.9043 49.3774 63.6312 49.6505 63.6312 49.994V60.5919C63.6312 60.9355 63.9043 61.2086 64.2479 61.2086C64.5914 61.2086 64.8645 60.9355 64.8645 60.5919V49.994C64.8645 49.6505 64.5914 49.3774 64.2479 49.3774Z" fill="white"/>
<path d="M63.6312 36.489H60.821C60.4774 36.489 60.2043 36.7621 60.2043 37.1057C60.2043 37.4493 60.4774 37.7224 60.821 37.7224H63.6312C63.9748 37.7224 64.2479 37.4493 64.2479 37.1057C64.2479 36.7621 63.9748 36.489 63.6312 36.489Z" fill="white"/>
<path d="M73.9648 15.1612L73.9383 15.0907C73.9119 15.029 73.8679 14.9674 73.8238 14.9145L64.8821 5.97286C64.8293 5.92 64.7764 5.88476 64.706 5.85833H64.6531C64.6002 5.84071 64.5386 5.8319 64.4857 5.8231H43.334C42.9905 5.8231 42.7174 6.09619 42.7174 6.43976C42.7174 6.78333 42.9905 7.05643 43.334 7.05643H63.8162V15.3638C63.8162 15.7074 64.0893 15.9805 64.4329 15.9805H72.7579V66.0186H50.7429C50.3993 66.0186 50.1262 66.2917 50.1262 66.6352C50.1262 66.9788 50.3993 67.2519 50.7429 67.2519H73.3745C73.7181 67.2519 73.9912 66.9788 73.9912 66.6352V15.3286C73.9912 15.2757 73.9736 15.214 73.956 15.1612H73.9648ZM65.0583 14.7471V7.89333L71.8505 14.7295L65.0583 14.7471Z" fill="white"/>
<path d="M38.8148 6.66C34.1545 2.60762 28.0848 0.54619 21.9181 0.91619C21.5745 0.933809 21.319 1.22452 21.3367 1.5681C21.3543 1.91167 21.645 2.16714 21.9886 2.14952C27.8557 1.79714 33.6171 3.76167 38.0483 7.62024C52.1612 19.3986 45.5805 35.5905 44.7788 37.3964L44.5321 37.881C42.6821 42.1095 39.2024 49.9676 38.5329 53.5002C38.4712 53.835 38.6914 54.161 39.0262 54.2226H39.1407C39.4402 54.2226 39.7045 54.02 39.7574 53.7205C40.3741 50.3376 43.8362 42.55 45.6774 38.3743L45.8888 37.8898C46.7257 35.9957 53.6236 19.0198 38.8148 6.66Z" fill="white"/>
<path d="M35.4583 10.6155C31.7671 7.41762 26.9836 5.76143 22.1119 5.97286C20.4469 4.24619 16.9495 0.255477 16.9143 0.211429C16.7469 0.0176197 16.4826 -0.0528565 16.2448 0.0352387C16.0069 0.123334 15.8483 0.343572 15.8395 0.599048C15.8395 0.651905 15.681 5.47952 15.5576 7.26786C14.0952 7.76119 12.6857 8.42191 11.3731 9.22357C11.3202 9.25881 11.2762 9.30286 11.241 9.3469L6.58071 14.9762C6.36048 15.2405 6.39571 15.6281 6.66 15.8483C6.66881 15.8571 6.67762 15.866 6.69524 15.8748L8.27214 17.02L0.167381 25.7238C0.0616667 25.8383 0 25.9881 0 26.1467V30.3136C0 30.5074 0.0880952 30.6836 0.237857 30.7981L3.92905 33.7052C4.03476 33.7933 4.17571 33.8374 4.30786 33.8374H7.60262C7.75238 33.8374 7.90214 33.7845 8.00786 33.6788L12.4919 29.7586C16.4121 29.7586 19.4162 28.6662 21.4336 26.5871C21.5305 26.4902 21.6186 26.3933 21.7067 26.2964C22.7902 29.4414 20.0329 32.5776 14.1393 37.6519C8.85357 42.1976 9.84905 53.1919 9.9019 53.6588C9.93714 53.976 10.2014 54.2138 10.5186 54.2138H33.996C34.3395 54.2138 34.6126 53.9407 34.6126 53.5971C34.6919 49.1836 38.7619 40.7617 40.4974 37.1674C40.7705 36.5948 40.9995 36.1279 41.1493 35.7931C41.4312 35.1764 47.8181 20.9314 35.4495 10.6067L35.4583 10.6155ZM40.0393 35.3262C39.8895 35.6521 39.6693 36.1102 39.4226 36.674C37.5726 40.4886 33.8286 48.2498 33.441 53.0157H11.1C10.9679 50.7517 10.7917 42.2064 14.9498 38.6298C20.8169 33.5819 24.834 29.644 22.57 25.1864C23.495 23.6976 23.9883 21.9886 24.006 20.2443C24.006 19.9007 23.7329 19.6276 23.3893 19.6276C23.0457 19.6276 22.7726 19.9007 22.7726 20.2443C22.7374 22.2881 21.9445 24.2526 20.5526 25.7502C18.7643 27.6002 16.0069 28.534 12.3686 28.534H12.2981C12.1483 28.534 11.9986 28.5869 11.884 28.6926L7.40881 32.6129H4.5369L1.25095 30.014V26.3845L9.62881 17.346C9.75214 17.2138 9.805 17.0376 9.78738 16.8614C9.76976 16.6852 9.67286 16.5267 9.5319 16.421L7.92857 15.2493L12.1131 10.2014C13.4433 9.41738 14.8529 8.77429 16.324 8.29857C16.5531 8.21929 16.7205 8.01667 16.7469 7.77C16.8438 6.85381 16.9495 3.99952 17.0112 2.21119C18.2445 3.62952 20.3324 5.94643 21.4248 7.05643C21.5481 7.17976 21.7243 7.25024 21.9005 7.23262C26.5607 6.95952 31.1505 8.52762 34.6743 11.5845C46.3205 21.3014 40.3036 34.736 40.0393 35.3086V35.3262Z" fill="white"/>
<path d="M40.7088 56.0902H8.73905C7.48809 56.0902 6.475 57.1033 6.475 58.3543C6.475 59.6052 7.48809 60.6183 8.73905 60.6183H40.7088C41.9598 60.6183 42.9729 59.6052 42.9729 58.3543C42.9729 57.1033 41.9598 56.0902 40.7088 56.0902ZM40.7088 59.385H8.73905C8.16643 59.385 7.70833 58.9269 7.70833 58.3543C7.70833 57.7817 8.16643 57.3236 8.73905 57.3236H40.7088C41.2726 57.3324 41.7219 57.7905 41.7219 58.3543C41.7219 58.9181 41.2726 59.3762 40.7088 59.385Z" fill="white"/>
<path d="M39.7574 62.5036H9.67285C5.47071 62.5036 2.07024 65.9129 2.07024 70.1062V70.8814C2.07024 71.225 2.34333 71.4981 2.6869 71.4981H46.7433C47.0869 71.4981 47.36 71.225 47.36 70.8814V70.1062C47.36 65.9041 43.9507 62.5036 39.7574 62.5036ZM46.1267 70.2648H3.30357V70.1062C3.30357 66.5912 6.15785 63.7369 9.67285 63.7369H39.7574C43.2724 63.7369 46.1267 66.5912 46.1267 70.1062V70.2648Z" fill="white"/>
<path d="M13.5402 3.26833C13.5402 3.26833 13.5314 3.25071 13.5226 3.24191C13.3552 2.96 12.9941 2.85429 12.7033 3.00405L8.18405 5.41786C7.90215 5.58524 7.80524 5.95524 7.96381 6.24595L9.02977 8.28095C9.17953 8.56286 9.5231 8.68619 9.81381 8.56286C10.1133 8.40429 10.2279 8.03429 10.0693 7.72595L9.28524 6.22833L13.2583 4.08762C13.5667 3.93786 13.69 3.55905 13.5314 3.25952L13.5402 3.26833Z" fill="white"/>
<path d="M16.7821 14.6062C16.6412 14.3595 16.3417 14.245 16.0686 14.3243L12.3598 15.4167C12.0426 15.54 11.8929 15.9012 12.0162 16.2183C12.1307 16.4914 12.4126 16.65 12.7033 16.5971L13.9367 16.236L12.95 17.161C12.7033 17.39 12.6857 17.7864 12.9236 18.0331C13.0381 18.1564 13.2055 18.2269 13.3817 18.2269C13.5402 18.2269 13.69 18.1652 13.8045 18.0507L16.6588 15.355C16.8614 15.1612 16.9143 14.844 16.7733 14.5974L16.7821 14.6062Z" fill="white"/>
<path d="M55.7907 19.8567H52.1171C51.7736 19.8567 51.5005 20.1298 51.5005 20.4733V24.1469C51.5005 24.4905 51.7736 24.7636 52.1171 24.7636H55.7907C56.1343 24.7636 56.4074 24.4905 56.4074 24.1469V20.4733C56.4074 20.1298 56.1343 19.8567 55.7907 19.8567ZM55.1741 23.5302H52.7426V21.0988H55.1741V23.5302Z" fill="white"/>
<path d="M55.7907 27.2479H52.1171C51.7736 27.2479 51.5005 27.521 51.5005 27.8645V31.5381C51.5005 31.8817 51.7736 32.1548 52.1171 32.1548H55.7907C56.1343 32.1548 56.4074 31.8817 56.4074 31.5381V27.8645C56.4074 27.521 56.1343 27.2479 55.7907 27.2479ZM55.1741 30.9214H52.7426V28.4812H55.1741V30.9214Z" fill="white"/>
<path d="M55.7907 34.6479H52.1171C51.7736 34.6479 51.5005 34.921 51.5005 35.2645V38.9381C51.5005 39.2817 51.7736 39.5548 52.1171 39.5548H55.7907C56.1343 39.5548 56.4074 39.2817 56.4074 38.9381V35.2645C56.4074 34.921 56.1343 34.6479 55.7907 34.6479ZM55.1741 38.3214H52.7426V35.846H55.1741V38.3214Z" fill="white"/>
<path d="M69.9124 40.841C69.7274 40.6383 69.4367 40.5767 69.19 40.6912L57.949 47.9414L55.4119 45.7655C55.1829 45.5805 54.8569 45.5805 54.6367 45.7655L46.3557 52.126C46.0826 52.3286 46.0298 52.7162 46.2324 52.9893C46.3469 53.1479 46.5319 53.236 46.7345 53.236C46.8667 53.236 47.0076 53.1919 47.1133 53.1038L54.9979 47.0252L57.491 49.166C57.7024 49.3421 58.0019 49.3686 58.231 49.2188L69.8595 41.7043C70.115 41.4752 70.1326 41.0876 69.9036 40.8321L69.9124 40.841Z" fill="white"/>
</g>
<defs>
<clipPath id="clip0_1_173">
<rect width="74" height="71.4981" fill="white"/>
</clipPath>
</defs>
</svg>
