<svg width="1003" height="174" viewBox="0 0 1003 174" fill="none" xmlns="http://www.w3.org/2000/svg">
<path d="M62.4415 99.0661L74.6717 111.296C75.2473 111.876 75.6105 112.634 75.7025 113.446C75.7945 114.258 75.61 115.077 75.1787 115.771C71.9238 121.076 70.5868 127.336 71.3909 133.508C72.3034 140.913 70.8814 148.418 67.3233 154.976C63.7652 161.535 58.2485 166.818 51.543 170.09C44.8376 173.363 37.2779 174.46 29.9189 173.229C22.5599 171.998 15.7688 168.5 10.4932 163.224C5.21755 157.948 1.72064 151.157 0.490422 143.797C-0.739793 136.438 0.358063 128.879 3.63079 122.174C6.90351 115.469 12.1878 109.952 18.7463 106.395C25.3048 102.837 32.8103 101.416 40.2155 102.329C46.3939 103.144 52.6649 101.812 57.9786 98.5562C58.6719 98.1283 59.4889 97.9459 60.2983 98.0384C61.1078 98.1309 61.8626 98.4929 62.4415 99.0661Z" fill="url(#paint0_linear_64_103)"/>
<path d="M146.854 93.1854L134.45 105.59C133.905 106.13 133.191 106.467 132.428 106.545C131.665 106.622 130.898 106.436 130.255 106.017C124.77 102.491 118.219 101.006 111.749 101.822C108.934 102.155 106.089 102.155 103.274 101.822C96.8397 101.012 90.3247 102.481 84.8597 105.973C84.222 106.381 83.4641 106.56 82.7112 106.48C81.9582 106.399 81.2551 106.064 80.7181 105.531L68.2314 93.0321C67.6988 92.4979 67.3635 91.7985 67.2805 91.0487C67.1975 90.2989 67.3717 89.5431 67.7745 88.9053C71.2606 83.4317 72.7207 76.9105 71.9014 70.473C71.7387 69.0659 71.6571 67.6506 71.6567 66.2341C71.6594 61.3405 72.6638 56.4993 74.6081 52.0084C76.5523 47.5176 79.3952 43.4723 82.9617 40.1216C86.5282 36.7709 90.7428 34.1856 95.3461 32.5251C99.9494 30.8646 104.844 30.1639 109.728 30.4662C114.612 30.7685 119.383 32.0674 123.746 34.2828C128.11 36.4983 131.974 39.5835 135.1 43.3485C138.226 47.1134 140.548 51.4784 141.924 56.1747C143.299 60.871 143.699 65.7991 143.098 70.6557C142.255 77.0702 143.729 83.575 147.255 88.9996C147.676 89.6383 147.865 90.4018 147.792 91.1632C147.719 91.9246 147.388 92.6382 146.854 93.1854Z" fill="url(#paint1_linear_64_103)"/>
<path d="M206.714 98.7889L218.378 110.447C219.014 111.083 219.415 111.916 219.514 112.81C219.613 113.704 219.405 114.605 218.923 115.364C215.479 120.815 214.036 127.293 214.841 133.69C215.431 138.724 214.948 143.825 213.423 148.658C211.898 153.491 209.365 157.946 205.993 161.729C202.62 165.512 198.484 168.537 193.857 170.604C189.23 172.672 184.218 173.735 179.15 173.724C174.082 173.713 169.074 172.628 164.456 170.54C159.838 168.452 155.715 165.409 152.36 161.611C149.004 157.813 146.491 153.348 144.987 148.508C143.483 143.668 143.022 138.565 143.635 133.534C144.481 127.087 142.989 120.551 139.428 115.111C138.936 114.354 138.718 113.451 138.812 112.553C138.906 111.655 139.306 110.817 139.944 110.179L151.496 98.6267C152.132 97.9899 152.967 97.5902 153.862 97.4942C154.756 97.3981 155.657 97.6117 156.413 98.0991C161.91 101.658 168.487 103.161 174.984 102.344C177.799 102.011 180.644 102.011 183.459 102.344C189.857 103.149 196.336 101.705 201.788 98.2612C202.546 97.7752 203.448 97.5626 204.344 97.6586C205.239 97.7545 206.075 98.1533 206.714 98.7889Z" fill="url(#paint2_linear_64_103)"/>
<path d="M286.73 68.1148C286.47 73.0269 285.203 77.833 283.006 82.234C280.809 86.6351 277.729 90.537 273.96 93.697C270.19 96.857 265.81 99.2076 261.093 100.602C256.376 101.997 251.423 102.406 246.541 101.805C240.885 101.061 235.138 102.117 230.116 104.823C229.461 105.177 228.819 105.557 228.194 105.961C227.433 106.459 226.524 106.681 225.619 106.589C224.714 106.496 223.869 106.096 223.224 105.454L211.71 93.94C211.069 93.2998 210.668 92.4588 210.573 91.5578C210.478 90.6568 210.695 89.7506 211.188 88.9908C214.721 83.5612 216.2 77.0491 215.359 70.6263C214.279 61.9099 216.436 53.1003 221.422 45.8694C226.407 38.6384 233.874 33.4893 242.405 31.3994C250.935 29.3094 259.937 30.424 267.7 34.5316C275.463 38.6392 281.448 45.454 284.52 53.6826C284.652 54.0334 284.776 54.3871 284.894 54.7438C286.348 59.044 286.972 63.5817 286.73 68.1148Z" fill="url(#paint3_linear_64_103)"/>
<path opacity="0.5" d="M180.481 60.8131C184.516 60.8465 188.517 60.0763 192.252 58.5475C195.986 57.0187 199.379 54.7618 202.233 51.9084C205.086 49.055 207.343 45.6622 208.872 41.9277C210.401 38.1932 211.171 34.1917 211.137 30.1565C211.008 13.6344 197.519 0.14251 181.011 0.00101752C176.975 -0.0320015 172.972 0.7389 169.237 2.26877C165.502 3.79864 162.108 6.05686 159.255 8.91176C156.401 11.7667 154.145 15.1611 152.617 18.8971C151.089 22.6332 150.32 26.636 150.355 30.6724C150.481 47.1827 163.973 60.6746 180.481 60.8131Z" fill="#036CFF"/>
<path opacity="0.5" d="M108.612 160.088C112.427 160.213 116.192 159.188 119.417 157.146C122.641 155.104 125.178 152.139 126.696 148.637C128.214 145.135 128.645 141.257 127.931 137.508C127.217 133.758 125.392 130.31 122.692 127.611C119.993 124.912 116.545 123.086 112.795 122.373C109.046 121.659 105.168 122.089 101.666 123.607C98.1638 125.125 95.1993 127.662 93.1573 130.887C91.1153 134.111 90.0902 137.876 90.2153 141.691C90.3736 146.52 92.3627 151.108 95.779 154.524C99.1954 157.94 103.783 159.929 108.612 160.088Z" fill="#036CFF"/>
<path opacity="0.5" d="M269.73 134.489C275.16 134.493 280.537 133.426 285.554 131.35C290.57 129.274 295.128 126.229 298.967 122.389C302.806 118.55 305.85 113.991 307.925 108.974C310 103.956 311.066 98.5793 311.061 93.1499C311.043 70.6968 292.239 51.8814 269.792 51.8814C264.363 51.8771 258.986 52.9434 253.969 55.0192C248.952 57.095 244.393 60.1397 240.554 63.979C236.714 67.8183 233.67 72.3768 231.594 77.3939C229.518 82.411 228.452 87.7881 228.456 93.2177C228.471 115.671 247.266 134.474 269.73 134.489Z" fill="#3E8EFF"/>
<path d="M470.965 62.0281C470.517 72.8994 470.292 84.5744 470.29 97.0532C470.288 109.532 470.513 121.208 470.965 132.081H448.291V81.5186H415.677V132.081H393C393.513 119.601 393.77 107.925 393.772 97.0532C393.774 86.1819 393.517 74.5069 393 62.0281H470.965ZM521.596 133.045C506.857 133.045 496.018 129.862 489.079 123.495C482.13 117.061 478.656 108.054 478.656 96.4755C478.656 85.0225 482.095 76.081 488.973 69.651C495.922 63.215 506.793 59.998 521.587 60C536.447 60 547.319 63.217 554.201 69.651C561.149 76.0829 564.624 85.0244 564.624 96.4755C564.624 108.119 561.185 117.125 554.307 123.495C547.429 129.864 536.525 133.047 521.596 133.045ZM521.596 113.36C528.739 113.36 533.886 112.01 537.036 109.31C540.18 106.541 541.752 102.263 541.752 96.4755C541.752 90.8158 540.18 86.6025 537.036 83.8355C533.892 81.0686 528.745 79.6851 521.596 79.6851C514.521 79.6851 509.412 81.0686 506.267 83.8355C503.123 86.6025 501.551 90.8158 501.551 96.4755C501.551 102.2 503.123 106.446 506.267 109.213C509.412 111.98 514.521 113.362 521.596 113.36ZM651.93 132.081H627.517V80.9408H605.901L605.807 86.5416C605.807 91.4309 605.678 95.7415 605.421 99.4733C605.213 103.262 604.762 107.033 604.071 110.763C602.784 117.773 599.503 123.401 594.228 127.648C589.017 131.895 581.715 134.018 572.323 134.018V115.2C574.831 114.687 576.796 113.562 578.219 111.824C579.699 110.024 580.824 107.161 581.594 103.235C582.184 100.09 582.478 92.9175 582.478 81.7161L582.381 62.034L651.948 62.1283L651.93 132.081ZM683.318 62.1224L681.676 116.258L705.125 62.1224H740.634C740.182 72.9937 739.957 84.6373 739.959 97.0532C739.959 109.534 740.184 121.21 740.634 132.081H715.835L717.571 79.3962L694.222 132.081H659.689C660.202 119.601 660.459 107.925 660.461 97.0532C660.461 86.2448 660.204 74.6012 659.689 62.1224H683.318ZM831.248 82.2909C821.149 81.9686 811.339 81.7721 801.818 81.7014V132.081H777.693V81.7102C768.109 81.775 758.331 81.9716 748.36 82.2997V62.0281H831.248V82.2909ZM874.079 60C888.621 60 899.331 63.3408 906.209 70.0224C913.087 76.7039 916.526 85.8066 916.526 97.3303C916.526 108.779 913.087 117.592 906.209 123.769C899.331 129.945 888.621 133.032 874.079 133.031C865.204 133.031 857.002 131.487 849.474 128.4C841.945 125.312 836.574 119.877 833.358 112.093C841.595 108.555 848.35 105.371 853.624 102.539C855.104 106.401 857.42 109.231 860.572 111.031C863.716 112.767 867.962 113.635 873.309 113.637C878.391 113.637 882.637 112.865 886.047 111.32C889.519 109.711 891.995 107.395 893.475 104.372H859.496V88.1599H892.885C891.406 85.3909 889.122 83.2352 886.035 81.6925C883.01 80.085 879.247 79.2812 874.745 79.2812C870.493 79.296 866.289 80.1829 862.394 81.887C858.403 83.6243 855.475 86.2939 853.612 89.8961C845.828 85.9068 839.042 82.9158 833.252 80.9231C840.136 66.9744 853.741 60 874.067 60H874.079ZM968.112 62.1224C980.915 62.1224 989.824 64.4059 994.839 68.973C999.856 73.4771 1002.37 79.8462 1002.37 88.0803C1002.37 93.74 1001.37 98.5644 999.376 102.554C997.379 106.484 993.873 109.572 988.858 111.819C983.837 114.006 976.922 115.099 968.112 115.099H948.041V132.081H924.279C924.796 119.601 925.053 107.925 925.051 97.0532C925.049 86.1819 924.792 74.5069 924.279 62.0281H948.017V62.1224H968.112ZM961.332 96.4755C966.673 96.4755 970.662 96.279 973.297 95.8859C975.999 95.4379 977.866 94.6665 978.898 93.5719C979.99 92.4773 980.537 90.8688 980.537 88.7465C980.537 86.6241 980.023 85.052 978.995 84.0301C978.028 82.9355 976.195 82.1956 973.495 81.8104C970.857 81.4174 966.804 81.2209 961.335 81.2209H948.02V96.4666L961.332 96.4755Z" fill="white"/>
<defs>
<linearGradient id="paint0_linear_64_103" x1="37.869" y1="173.727" x2="37.869" y2="98.0108" gradientUnits="userSpaceOnUse">
<stop offset="0.19" stop-color="#7360DE"/>
<stop offset="1" stop-color="#036CFF"/>
</linearGradient>
<linearGradient id="paint1_linear_64_103" x1="107.54" y1="106.559" x2="107.54" y2="30.3983" gradientUnits="userSpaceOnUse">
<stop offset="0.19" stop-color="#7360DE"/>
<stop offset="1" stop-color="#036CFF"/>
</linearGradient>
<linearGradient id="paint2_linear_64_103" x1="179.161" y1="173.768" x2="179.161" y2="97.4565" gradientUnits="userSpaceOnUse">
<stop offset="0.19" stop-color="#7360DE"/>
<stop offset="1" stop-color="#036CFF"/>
</linearGradient>
<linearGradient id="paint3_linear_64_103" x1="248.666" y1="106.609" x2="248.666" y2="30.363" gradientUnits="userSpaceOnUse">
<stop offset="0.19" stop-color="#7360DE"/>
<stop offset="1" stop-color="#036CFF"/>
</linearGradient>
</defs>
</svg>
