<svg width="74" height="54" viewBox="0 0 74 54" fill="none" xmlns="http://www.w3.org/2000/svg">
<g clip-path="url(#clip0_1_124)">
<path d="M31.1276 50.4745C33.728 50.4745 35.835 48.3675 35.835 45.7671C35.835 43.1667 33.728 41.0596 31.1276 41.0596C28.5271 41.0596 26.4201 43.1667 26.4201 45.7671C26.4231 48.366 28.5286 50.4716 31.1276 50.4745ZM31.1276 42.2484C33.0712 42.2484 34.6463 43.8235 34.6463 45.7671C34.6463 47.7107 33.0712 49.2858 31.1276 49.2858C29.1839 49.2858 27.6088 47.7107 27.6088 45.7671C27.6118 43.8249 29.1854 42.2513 31.1276 42.2484Z" fill="white"/>
<path d="M61.5359 41.0596C58.9355 41.0596 56.8284 43.1667 56.8284 45.7671C56.8284 48.3675 58.9355 50.4745 61.5359 50.4745C64.1363 50.4745 66.2434 48.3675 66.2434 45.7671C66.2404 43.1682 64.1333 41.0626 61.5359 41.0596ZM61.5359 49.2858C59.5923 49.2858 58.0172 47.7107 58.0172 45.7671C58.0172 43.8235 59.5923 42.2484 61.5359 42.2484C63.4795 42.2484 65.0546 43.8235 65.0546 45.7671C65.0546 47.7107 63.4795 49.2858 61.5359 49.2858Z" fill="white"/>
<path d="M74 33.8022C73.997 32.615 73.0356 31.6536 71.8484 31.6506H65.8689L63.0753 13.9144C62.897 12.742 61.8836 11.8801 60.6978 11.8935H39.1695C38.902 11.8801 38.6568 12.048 38.5751 12.3036L31.0027 35.6508C30.5094 35.6567 30.0161 35.6983 29.5287 35.7756V11.9232H30.973C31.3014 11.9232 31.5674 11.6572 31.5674 11.3288V2.87084C31.5674 2.54245 31.3014 2.27647 30.973 2.27647H29.5287V0.594377C29.5287 0.265984 29.2627 0 28.9343 0H23.8643C23.5359 0 23.2699 0.265984 23.2699 0.594377V21.7186H21.0707C20.7423 21.7186 20.4763 21.9845 20.4763 22.3129V43.4371H0.594378C0.265984 43.4371 0 43.7031 0 44.0315C0 44.3599 0.265984 44.6259 0.594378 44.6259H21.0707C21.3991 44.6259 21.6651 44.3599 21.6651 44.0315V22.9073H23.2699V43.6214C23.2669 43.6496 23.2669 43.6778 23.2699 43.7046C22.1822 47.7642 24.3769 51.9843 28.328 53.4212C32.2792 54.8581 36.6731 53.0378 38.4488 49.2278C40.2245 45.4179 38.7935 40.8828 35.153 38.7802C31.5124 36.679 26.8688 37.7088 24.4586 41.1532V1.18875H28.3399V36.043C27.279 36.3462 26.2745 36.8232 25.368 37.4517C25.1184 37.6449 25.0634 38.0015 25.2447 38.2616C25.426 38.5216 25.7782 38.5944 26.0456 38.428C29.3088 36.1188 33.7086 36.2659 36.8113 38.7831C39.9139 41.3003 40.963 45.5769 39.3775 49.2457C39.2497 49.5488 39.3909 49.8965 39.6925 50.0243C39.7653 50.057 39.8441 50.0733 39.9243 50.0718C40.1636 50.0718 40.3775 49.9292 40.4712 49.7093C40.6019 49.4002 40.7149 49.1149 40.8159 48.7642H53.9992C55.2385 51.8906 58.2802 53.9279 61.6444 53.8833C65.0086 53.8387 67.9938 51.7212 69.1499 48.5621H71.8484C73.0371 48.5592 74 47.5933 74 46.4045V33.8037V33.8022ZM29.5287 3.489H30.3786V10.7345H29.5287V3.489ZM31.1276 38.8307C34.9553 38.8277 38.061 41.9274 38.0639 45.7552C38.0669 49.583 34.9672 52.6886 31.1394 52.6916C27.3116 52.6945 24.206 49.5949 24.2031 45.7671C24.2031 41.9408 27.3012 38.8366 31.1276 38.8307ZM39.6034 13.0822H60.7157C61.31 13.0763 61.8182 13.5102 61.9044 14.0986L64.6683 31.6506H63.3725L60.7097 15.228C60.6295 14.7391 60.2075 14.3795 59.7112 14.378H39.1814L39.6034 13.0822ZM38.7831 15.5667H59.5863L62.1957 31.6506H58.1063L59.6398 23.6384C59.6978 23.1183 59.5343 22.5982 59.1881 22.2059C58.7483 21.7141 58.0796 21.4942 57.4347 21.6324C56.7898 21.7706 56.2682 22.2431 56.0676 22.8716L53.601 29.4098H48.739C47.6394 29.4098 46.7478 30.3014 46.7478 31.401V34.8067C46.1371 35.8127 45.8146 36.9658 45.8146 38.1412V40.0373H42.0284L37.6776 35.0267C37.208 34.4605 37.1739 33.6507 37.5944 33.0474L38.8604 31.2108C39.0135 31.0012 39.0135 30.7189 38.8604 30.5094L37.4161 28.6252L38.4978 27.7039L39.4904 29.0116C39.6896 29.2731 40.061 29.3236 40.3226 29.1245C40.5826 28.9254 40.6331 28.5539 40.4355 28.2924L37.5944 24.6191C37.3953 24.3561 37.0223 24.3041 36.7593 24.5032C36.4963 24.7023 36.4443 25.0768 36.6434 25.3383L37.7192 26.7529L36.6434 27.6861L35.3833 26.0456L38.7831 15.5667ZM56.8938 31.6506H52.329C50.7004 31.6506 49.1327 32.2628 47.9365 33.3684V31.4188C47.9365 30.976 48.2961 30.6164 48.739 30.6164H54.0111C54.2592 30.6164 54.4821 30.4633 54.5698 30.23L57.2088 23.2461C57.2861 22.9786 57.5253 22.7929 57.8032 22.7825C57.98 22.7825 58.1494 22.8538 58.2728 22.9831C58.3946 23.1109 58.46 23.2833 58.4511 23.4601L56.8938 31.6506ZM32.245 35.7102L34.9494 27.3889L37.5944 30.8898L36.5661 32.3757C35.838 33.4352 35.9182 34.8543 36.7622 35.8231L41.2914 41.0358C41.4029 41.1666 41.5663 41.2424 41.7372 41.2439H45.7968V43.9542H41.0418C40.2498 39.5662 36.6746 36.2169 32.245 35.7102ZM61.5478 52.6975C57.72 52.7005 54.6144 49.5993 54.6114 45.7715C54.6084 41.9422 57.7111 38.8381 61.5404 38.8366C65.3681 38.8366 68.4723 41.9393 68.4723 45.7671C68.4693 49.5963 65.3652 52.6975 61.5359 52.6975H61.5478ZM72.841 46.403C72.841 46.9365 72.4115 47.3689 71.8781 47.3719H69.5006C69.609 46.8444 69.6625 46.3065 69.661 45.7671C69.5422 41.3702 65.9432 37.8678 61.5448 37.8678C57.1464 37.8678 53.5475 41.3702 53.4286 45.7671C53.4316 46.3674 53.5029 46.9662 53.6426 47.5502H41.0834C41.1889 46.9618 41.2439 46.3644 41.2498 45.7671C41.2498 45.559 41.2498 45.351 41.2201 45.1727H46.409C46.7374 45.1727 47.0034 44.9067 47.0034 44.5783V38.159C47.0034 35.205 49.3987 32.8096 52.3528 32.8096H71.8721C72.4026 32.8126 72.832 33.242 72.835 33.7725L72.841 46.403Z" fill="white"/>
<path d="M70.511 34.2896C70.1826 34.2896 69.9166 34.5556 69.9166 34.884V37.208C69.9166 37.5364 70.1826 37.8024 70.511 37.8024C70.8394 37.8024 71.1054 37.5364 71.1054 37.208V34.884C71.1054 34.5556 70.8394 34.2896 70.511 34.2896Z" fill="white"/>
<path d="M70.511 38.8307C70.1826 38.8307 69.9166 39.0967 69.9166 39.4251V40.3226C69.9166 40.651 70.1826 40.9169 70.511 40.9169C70.8394 40.9169 71.1054 40.651 71.1054 40.3226V39.4251C71.1054 39.0967 70.8394 38.8307 70.511 38.8307Z" fill="white"/>
<path d="M1.11149 7.24545C0.783093 7.24545 0.517109 7.51144 0.517109 7.83983V41.3449C0.517109 41.6733 0.783093 41.9393 1.11149 41.9393H18.4851C18.8135 41.9393 19.0795 41.6733 19.0795 41.3449V7.83983C19.0795 7.51144 18.8135 7.24545 18.4851 7.24545H1.11149ZM17.8908 40.7505H1.70586V33.4456H17.8908V40.7505ZM17.8908 32.2569H1.70586V25.1243H17.8908V32.2569ZM17.8908 23.9356H1.70586V16.803H17.8908V23.9356ZM17.8908 15.6143H1.70586V8.48176H17.8908V15.6143Z" fill="white"/>
</g>
<defs>
<clipPath id="clip0_1_124">
<rect width="74" height="53.913" fill="white"/>
</clipPath>
</defs>
</svg>
